<?xml version="1.0" encoding="UTF-8" standalone="no"?><!DOCTYPE svg PUBLIC "-//W3C//DTD SVG 1.1//EN" "http://www.w3.org/Graphics/SVG/1.1/DTD/svg11.dtd"><svg width="100%" height="100%" viewBox="0 0 31 36" version="1.1" xmlns="http://www.w3.org/2000/svg" xmlns:xlink="http://www.w3.org/1999/xlink" xml:space="preserve" xmlns:serif="http://www.serif.com/" style="fill-rule:evenodd;clip-rule:evenodd;stroke-miterlimit:10;"><path id="Fill_1" d="M28.106,34.477l-25.513,0c-0.001,0 -0.002,0 -0.003,0c-0.845,0 -1.541,-0.695 -1.543,-1.54l0,-17.92c0.002,-0.845 0.698,-1.54 1.543,-1.54c0.001,-0 0.002,-0 0.003,-0l25.513,-0c0.845,0.001 1.539,0.695 1.541,1.54l0,17.92c-0.002,0.845 -0.696,1.539 -1.541,1.54" style="fill:none;fill-rule:nonzero;"/><path id="Stroke_3" d="M28.106,34.477l-25.513,0c-0.001,0 -0.002,0 -0.003,0c-0.845,0 -1.541,-0.695 -1.543,-1.54l0,-17.92c0.002,-0.845 0.698,-1.54 1.543,-1.54c0.001,-0 0.002,-0 0.003,-0l25.513,-0c0.845,0.001 1.539,0.695 1.541,1.54l0,17.92c-0.002,0.845 -0.696,1.539 -1.541,1.54Z" style="fill:none;fill-rule:nonzero;stroke:#fff;stroke-width:1.5px;"/><path id="Stroke_5" d="M2.481,13.252l4.558,-8.375c0.146,-0.301 0.451,-0.495 0.786,-0.5l15.75,-0c0.347,0.007 0.66,0.215 0.8,0.532l4.112,8.568" style="fill:none;fill-rule:nonzero;stroke:#fff;stroke-width:1.5px;"/><rect id="Clip_8-2" x="0.349" y="7.877" width="30" height="28" style="fill:none;fill-rule:nonzero;"/><g id="Group_11_Copy-2"><clipPath id="_clip1"><rect x="0" y="0" width="30" height="35.877"/></clipPath><g clip-path="url(#_clip1)"><rect id="Fill_7" x="11.512" y="21.177" width="6.977" height="3.5" style="fill:none;fill-rule:nonzero;"/><rect id="Stroke_9" x="12.512" y="2.177" width="6.093" height="3.5" style="fill:#d8362e;fill-rule:nonzero;stroke:#fff;stroke-width:1.5px;"/></g></g><g id="_2"></g></svg>