<svg xmlns="http://www.w3.org/2000/svg" width="17.392" height="17.359" viewBox="0 0 17.392 17.359">
  <g id="Group_8173" data-name="Group 8173" transform="translate(-41.2 -41.5)">
    <path id="Path_9463" data-name="Path 9463" d="M58.592,257.927v3.85a.877.877,0,0,1-.027.214h0a.827.827,0,0,1-.8.663H42.027a.824.824,0,0,1-.816-.734.648.648,0,0,1-.011-.148v-3.85a.821.821,0,0,1,1.643,0V261H56.955v-3.083a.821.821,0,0,1,1.4-.58A.867.867,0,0,1,58.592,257.927Z" transform="translate(0 -203.794)" fill="#4a4a4a"/>
    <path id="Path_9464" data-name="Path 9464" d="M118.247,50.278l-4.036,4.036c-.005.011-.016.016-.022.022a.951.951,0,0,1-.531.268c-.016,0-.033.005-.049.005a.6.6,0,0,1-.1.005h0l-.093-.005c-.016,0-.033-.005-.049-.005a.934.934,0,0,1-.531-.268l-.022-.022-4.036-4.036a.96.96,0,0,1,1.358-1.358l2.426,2.426V42.458a.963.963,0,0,1,.958-.958.98.98,0,0,1,.679.279.947.947,0,0,1,.279.679v8.888l2.426-2.426a.965.965,0,0,1,1.358,0A.981.981,0,0,1,118.247,50.278Z" transform="translate(-63.615)" fill="#4a4a4a"/>
  </g>
</svg>
