<?xml version="1.0" encoding="UTF-8"?>
<svg width="23px" height="22px" viewBox="0 0 23 22" version="1.1" xmlns="http://www.w3.org/2000/svg" xmlns:xlink="http://www.w3.org/1999/xlink">
    <!-- Generator: Sketch 52.3 (67297) - http://www.bohemiancoding.com/sketch -->
    <title>Icon/Lock 2</title>
    <desc>Created with Sketch.</desc>
    <g id="Homepage" stroke="none" stroke-width="1" fill="none" fill-rule="evenodd">
        <g id="iPhone-XS" transform="translate(-13.000000, -13.000000)">
            <g id="Header/Mobile">
                <g id="Btn/Icon-Copy">
                    <g id="Icon/Lock-2" transform="translate(13.000000, 12.000000)">
                        <g id="Icon/Lock">
                            <path d="M13.2724509,3.39077561 L21.4702342,19.0734916 C21.9819307,20.0523892 21.6031894,21.2607544 20.6242918,21.7724509 C20.3383332,21.9219292 20.0204535,22 19.6977833,22 L3.30221665,22 C2.19764715,22 1.30221665,21.1045695 1.30221665,20 C1.30221665,19.6773298 1.38028744,19.3594501 1.52976576,19.0734916 L9.72754911,3.39077561 C10.2392456,2.41187802 11.4476108,2.03313667 12.4265084,2.54483314 C12.7881963,2.73389726 13.0833868,3.02908774 13.2724509,3.39077561 Z" id="Triangle" stroke="#FFFFFF" stroke-width="2" fill-opacity="0.25" fill="#000000" fill-rule="nonzero"></path>
                            <path d="M12.24,15.776 L10.32,15.776 L10.32,8 L12.24,8 L12.24,15.776 Z M10,18.208 C10,17.866665 10.1253321,17.5733346 10.376,17.328 C10.6266679,17.0826654 10.9279982,16.96 11.28,16.96 C11.621335,16.96 11.9199987,17.0773322 12.176,17.312 C12.4320013,17.5466678 12.56,17.834665 12.56,18.176 C12.56,18.517335 12.4346679,18.8106654 12.184,19.056 C11.9333321,19.3013346 11.6320018,19.424 11.28,19.424 C11.1093325,19.424 10.9466674,19.3920003 10.792,19.328 C10.6373326,19.2639997 10.5013339,19.1786672 10.384,19.072 C10.2666661,18.9653328 10.1733337,18.8373341 10.104,18.688 C10.0346663,18.5386659 10,18.3786675 10,18.208 Z" id="!" fill="#FFFFFF"></path>
                        </g>
                    </g>
                </g>
            </g>
        </g>
    </g>
</svg>