<?xml version="1.0" encoding="UTF-8" standalone="no"?><!DOCTYPE svg PUBLIC "-//W3C//DTD SVG 1.1//EN" "http://www.w3.org/Graphics/SVG/1.1/DTD/svg11.dtd"><svg xmlns="http://www.w3.org/2000/svg" xmlns:xlink="http://www.w3.org/1999/xlink"><symbol viewBox="0 0 144 144" xml:space="preserve" style="fill-rule:evenodd;clip-rule:evenodd;stroke-linejoin:round;stroke-miterlimit:1.41421;" id="circle" xmlns="http://www.w3.org/2000/svg">
    <g transform="matrix(1,0,0,1,2.31876,3.20867)">
        <circle cx="69.681" cy="68.791" r="39.298" style="fill:rgb(235,235,235);"/>
    </g>
</symbol><symbol viewBox="0 0 481 481" xml:space="preserve" style="fill-rule:evenodd;clip-rule:evenodd;stroke-linejoin:round;stroke-miterlimit:1.41421;" id="ibex-logo" xmlns="http://www.w3.org/2000/svg">
    <g transform="matrix(1.3159,0.487439,-0.487439,1.3159,-385.92,-456.861)">
        <g id="bArtboard1">
            <path d="M452.966,269.381C450.979,271.248 448.592,270.117 450.645,266.632C481.458,214.32 534.6,198.495 582.537,210.429C619.954,219.744 634.873,232.593 659.687,259.628C675.7,267.928 697.009,293.157 694.573,309.495L698.411,324.585L717.95,345.185C725.504,354.145 727.81,361.899 725.768,368.656L720.079,372.251L717.983,378.589L707.325,377.347L703.231,379.46L706.325,387.73L701.118,387.23L701.618,390.841C693.027,385.164 689.798,381.412 690.237,378.976C680.503,378.987 674.97,378.035 671.438,376.622C664.273,389.364 664.262,404.81 664.264,420.261C663.491,443.262 653.879,459.938 639.794,473.411C639.56,474.187 640.276,474.529 639.504,475.068C622.912,481.802 524.871,518.42 489.793,530.524C488.867,525.307 463.528,460.246 457.564,443.49C459.823,441.562 461.973,439.717 463.853,438.048C471.582,433.417 477.051,420.758 497.111,424.251C503.993,425.283 530.726,410.628 548.549,408.267C555.042,396.712 562.623,385.492 583.323,378.314C586.275,367.082 590.859,355.591 606.395,348.607C605.232,344.616 608.371,338.273 609.777,333.878C619.356,327.816 625.198,316.639 634.462,313.478C633.101,305.797 632.428,298.235 635.075,291.249C643.134,296.84 647.165,303.307 649.44,310.158L653.536,306.304L654.405,301.226L643.024,283.058C615.413,264.665 568.844,268.767 504.782,293.626C503.576,294.094 502.877,293.458 503.846,292.647C524.6,275.261 576.005,253.837 612.913,253.007C574.735,221.895 508.382,217.318 452.966,269.381Z" style="fill:rgb(5,230,255);"/>
        </g>
    </g>
</symbol><symbol viewBox="0 0 23 22" id="icon-alert" xmlns="http://www.w3.org/2000/svg">
    <!-- Generator: Sketch 52.3 (67297) - http://www.bohemiancoding.com/sketch -->
    <title>Icon/Lock 2</title>
    <desc>Created with Sketch.</desc>
    <g id="cHomepage" stroke="none" stroke-width="1" fill="none" fill-rule="evenodd">
        <g id="ciPhone-XS" transform="translate(-13.000000, -13.000000)">
            <g id="cHeader/Mobile">
                <g id="cBtn/Icon-Copy">
                    <g id="cIcon/Lock-2" transform="translate(13.000000, 12.000000)">
                        <g id="cIcon/Lock">
                            <path d="M13.2724509,3.39077561 L21.4702342,19.0734916 C21.9819307,20.0523892 21.6031894,21.2607544 20.6242918,21.7724509 C20.3383332,21.9219292 20.0204535,22 19.6977833,22 L3.30221665,22 C2.19764715,22 1.30221665,21.1045695 1.30221665,20 C1.30221665,19.6773298 1.38028744,19.3594501 1.52976576,19.0734916 L9.72754911,3.39077561 C10.2392456,2.41187802 11.4476108,2.03313667 12.4265084,2.54483314 C12.7881963,2.73389726 13.0833868,3.02908774 13.2724509,3.39077561 Z" id="cTriangle" stroke="#FFFFFF" stroke-width="2" fill-opacity="0.25" fill="#000000" fill-rule="nonzero"/>
                            <path d="M12.24,15.776 L10.32,15.776 L10.32,8 L12.24,8 L12.24,15.776 Z M10,18.208 C10,17.866665 10.1253321,17.5733346 10.376,17.328 C10.6266679,17.0826654 10.9279982,16.96 11.28,16.96 C11.621335,16.96 11.9199987,17.0773322 12.176,17.312 C12.4320013,17.5466678 12.56,17.834665 12.56,18.176 C12.56,18.517335 12.4346679,18.8106654 12.184,19.056 C11.9333321,19.3013346 11.6320018,19.424 11.28,19.424 C11.1093325,19.424 10.9466674,19.3920003 10.792,19.328 C10.6373326,19.2639997 10.5013339,19.1786672 10.384,19.072 C10.2666661,18.9653328 10.1733337,18.8373341 10.104,18.688 C10.0346663,18.5386659 10,18.3786675 10,18.208 Z" id="c!" fill="#FFFFFF"/>
                        </g>
                    </g>
                </g>
            </g>
        </g>
    </g>
</symbol></svg>