<svg xmlns="http://www.w3.org/2000/svg" xmlns:xlink="http://www.w3.org/1999/xlink" width="20.525" height="18.622" viewBox="0 0 20.525 18.622"><defs><clipPath id="a"><path d="M0,18.622H19.953V0H0Z" fill="none"/></clipPath></defs><g transform="translate(0.286)"><path d="M18,13.967H1.028A1.026,1.026,0,0,1,0,12.943V1.024A1.026,1.026,0,0,1,1.028,0H18a1.026,1.026,0,0,1,1.028,1.024V12.943A1.026,1.026,0,0,1,18,13.967" transform="translate(0.464 3.724)" fill="none"/><path d="M18,13.967H1.028A1.026,1.026,0,0,1,0,12.943V1.024A1.026,1.026,0,0,1,1.028,0H18a1.026,1.026,0,0,1,1.028,1.024V12.943A1.026,1.026,0,0,1,18,13.967Z" transform="translate(0.464 3.724)" fill="none" stroke="#EE3A29" stroke-miterlimit="10" stroke-width="1.5"/><path d="M18.561.15,15.307,5.72a.639.639,0,0,1-.561.333H3.505A.64.64,0,0,1,2.934,5.7L0,0" transform="translate(0.928 4.19)" fill="none" stroke="#EE3A29" stroke-miterlimit="10" stroke-width="1.5"/><path d="M0,18.622H19.953V0H0Z" fill="none"/><g clip-path="url(#a)"><path d="M0,2.328H4.64V0H0Z" transform="translate(7.424 8.846)" fill="#fff"/><path d="M0,2.328H4.64V0H0Z" transform="translate(7.424 8.846)" fill="none" stroke="#EE3A29" stroke-miterlimit="10" stroke-width="1.5"/><path d="M0,2.793V1.225A1.214,1.214,0,0,1,1.2,0H5.757a1.214,1.214,0,0,1,1.2,1.225V2.793" transform="translate(6.496 0.931)" fill="none" stroke="#EE3A29" stroke-miterlimit="10" stroke-width="1.5"/></g></g></svg>