<svg xmlns="http://www.w3.org/2000/svg" width="33.41" height="33.387" viewBox="0 0 33.41 33.387">
  <g id="Component_98_2" data-name="Component 98 – 2" transform="translate(0.14 0.125)">
    <g id="Group_2828" data-name="Group 2828">
      <path id="Path_4766" data-name="Path 4766" d="M7.57,28.622a1.427,1.427,0,0,0,.311-1.912L5.1,22.536a1.422,1.422,0,0,0-1.916-.43L1.438,23.152A2.67,2.67,0,0,0,.222,24.733C-.424,27.077.047,31.108,5.94,37c4.677,4.678,8.181,5.938,10.6,5.938a6.294,6.294,0,0,0,1.667-.218,2.666,2.666,0,0,0,1.581-1.215l1.05-1.745a1.42,1.42,0,0,0-.43-1.915l-4.174-2.783a1.429,1.429,0,0,0-1.911.31l-1.172,1.5h-.718A13.853,13.853,0,0,1,8.87,34.066a13.811,13.811,0,0,1-2.825-3.594l-.128-.234a.314.314,0,0,1,.086-.4ZM4.957,30.776,5.081,31a14.81,14.81,0,0,0,3.014,3.846,14.783,14.783,0,0,0,3.848,3.015l.224.123a1.405,1.405,0,0,0,1.6-.154c.008-.007.017-.011.025-.018a1.442,1.442,0,0,0,.189-.2l1.215-1.562a.319.319,0,0,1,.427-.07l4.174,2.783a.317.317,0,0,1,.1.429l-1.05,1.745a1.572,1.572,0,0,1-.926.718c-2.914.8-6.889-1.131-11.194-5.436S.486,27.939,1.285,25.026A1.572,1.572,0,0,1,2,24.1l1.745-1.05a.318.318,0,0,1,.428.1l2.785,4.176a.319.319,0,0,1-.07.427L5.33,28.965a1.411,1.411,0,0,0-.374,1.81Z" transform="translate(-0.003 -9.802)" fill="#EE3A29" stroke="#EE3A29" stroke-width="0.25"/>
      <path id="Path_4767" data-name="Path 4767" d="M35.07,2.762h-.552V.552a.552.552,0,0,0-1.1,0v2.21H30.651V.552a.552.552,0,0,0-1.1,0v2.21H26.783V.552a.552.552,0,0,0-1.1,0v2.21H22.916V.552a.552.552,0,0,0-1.1,0v2.21H19.049V.552a.552.552,0,0,0-1.1,0v2.21H15.182V.552a.552.552,0,1,0-1.1,0v2.21H11.315V.552a.552.552,0,1,0-1.1,0v2.21H9.657A1.657,1.657,0,0,0,8,4.42V10.5a.552.552,0,1,0,1.1,0V8.287H33.413a.552.552,0,1,0,0-1.1H9.1V4.42a.553.553,0,0,1,.552-.552H35.07a.553.553,0,0,1,.552.552v22.1a.553.553,0,0,1-.552.552H25.678a.552.552,0,0,0,0,1.1H35.07a1.657,1.657,0,0,0,1.657-1.657V4.42A1.657,1.657,0,0,0,35.07,2.762Z" transform="translate(-3.582)" fill="#EE3A29" stroke="#EE3A29" stroke-width="0.25"/>
      <path id="Path_4768" data-name="Path 4768" d="M17.552,23.42a.552.552,0,0,0,0,1.1h6.629v3.867a.553.553,0,0,0,.552.552h5.525v3.315H28.6a.552.552,0,1,0,0,1.1h8.287a.553.553,0,0,0,.552-.552V19.552A.553.553,0,0,0,36.888,19H17.552a.552.552,0,0,0,0,1.1H18.1V23.42Zm7.734,4.42V24.525h4.972v3.315Zm0-4.42V20.1h4.972V23.42Zm11.049,4.42H31.364V24.525h4.972Zm-4.972,4.42V28.944h4.972v3.315Zm4.972-8.839H31.364V20.1h4.972ZM19.21,20.1h4.972V23.42H19.21Z" transform="translate(-7.61 -8.503)" fill="#EE3A29" stroke="#EE3A29" stroke-width="0.25"/>
    </g>
  </g>
</svg>
