<svg id="Group_11_Copy" data-name="Group 11 Copy" xmlns="http://www.w3.org/2000/svg" xmlns:xlink="http://www.w3.org/1999/xlink" width="30.401" height="35.877" viewBox="0 0 30.401 35.877">
  <defs>
    <clipPath id="clip-path">
      <path id="Clip_8" data-name="Clip 8" d="M0,35.877H30V0H0Z" transform="translate(-0.349 -7.877)" fill="none"/>
    </clipPath>
  </defs>
  <path id="Fill_1" data-name="Fill 1" d="M27.059,21H1.546A1.543,1.543,0,0,1,0,19.46V1.54A1.543,1.543,0,0,1,1.546,0H27.059A1.543,1.543,0,0,1,28.6,1.54V19.46A1.543,1.543,0,0,1,27.059,21" transform="translate(1.047 13.477)" fill="none"/>
  <path id="Stroke_3" data-name="Stroke 3" d="M27.059,21H1.546A1.543,1.543,0,0,1,0,19.46V1.54A1.543,1.543,0,0,1,1.546,0H27.059A1.543,1.543,0,0,1,28.6,1.54V19.46A1.543,1.543,0,0,1,27.059,21Z" transform="translate(1.047 13.477)" fill="none" stroke="#fff" stroke-miterlimit="10" stroke-width="1.5"/>
  <path id="Stroke_5" data-name="Stroke 5" d="M26.006.225,21.448,8.6a.888.888,0,0,1-.786.5H4.912a.893.893,0,0,1-.8-.532L0,0" transform="translate(28.487 13.477) rotate(180)" fill="none" stroke="#fff" stroke-miterlimit="10" stroke-width="1.5"/>
  <path id="Clip_8-2" data-name="Clip 8" d="M0,28H30V0H0Z" transform="translate(0.349 7.877)" fill="none"/>
  <g id="Group_11_Copy-2" data-name="Group 11 Copy" transform="translate(0.349 7.877)" clip-path="url(#clip-path)">
    <path id="Fill_7" data-name="Fill 7" d="M0,3.5H6.977V0H0Z" transform="translate(11.163 13.3)" fill="none"/>
    <path id="Stroke_9" data-name="Stroke 9" d="M0,3.5H6.093V0H0Z" transform="translate(12.163 -5.7)" fill="#d8362e" stroke="#fff" stroke-miterlimit="10" stroke-width="1.5"/>
  </g>
  <text id="_2" data-name="2" transform="translate(11.349 13.608)" fill="#fff" font-size="16" font-family="DINPro, DIN Pro"><tspan x="0" y="17">2</tspan></text>
</svg>
