<?xml version="1.0" encoding="UTF-8"?>
<svg width="38px" height="38px" viewBox="0 0 38 38" version="1.1" xmlns="http://www.w3.org/2000/svg" xmlns:xlink="http://www.w3.org/1999/xlink">
    <!-- Generator: sketchtool 63.1 (101010) - https://sketch.com -->
    <title>81A1CB70-BFB1-4B83-AC93-85185D7C8BDC</title>
    <desc>Created with sketchtool.</desc>
    <g id="Homepage" stroke="none" stroke-width="1" fill="none" fill-rule="evenodd">
        <g id="BA-Homepage-Desktop-B-030220" transform="translate(-624.000000, -3719.000000)" fill="#FFFFFF" fill-rule="nonzero">
            <g id="footer" transform="translate(0.000000, 3593.000000)">
                <g id="connect" transform="translate(571.000000, 84.000000)">
                    <g id="Group-9" transform="translate(0.000000, 42.000000)">
                        <path d="M72,0 C61.50725,0 53,8.50725 53,19 C53,29.49275 61.50725,38 72,38 C82.49275,38 91,29.49275 91,19 C91,8.50725 82.49275,0 72,0 Z M76.75,12.6666667 L74.6125,12.6666667 C73.7606667,12.6666667 73.5833333,13.0165833 73.5833333,13.8985 L73.5833333,15.8333333 L76.75,15.8333333 L76.4190833,19 L73.5833333,19 L73.5833333,30.0833333 L68.8333333,30.0833333 L68.8333333,19 L65.6666667,19 L65.6666667,15.8333333 L68.8333333,15.8333333 L68.8333333,12.179 C68.8333333,9.37808333 70.3074167,7.91666667 73.62925,7.91666667 L76.75,7.91666667 L76.75,12.6666667 Z" id="facebook"></path>
                    </g>
                </g>
            </g>
        </g>
    </g>
</svg>