<svg id="Icon-Video_heart" data-name="Icon-Video heart" xmlns="http://www.w3.org/2000/svg" width="25.001" height="22.94" viewBox="0 0 25.001 22.94">
  <g id="Group_8196" data-name="Group 8196">
    <g id="Group_8195" data-name="Group 8195">
      <g id="Group_8194" data-name="Group 8194">
        <g id="Group_8193" data-name="Group 8193">
          <g id="Group_8192" data-name="Group 8192">
            <g id="Group_8191" data-name="Group 8191">
              <g id="Group_8190" data-name="Group 8190">
                <path id="Path_9486" data-name="Path 9486" d="M63.324,50.99a7.117,7.117,0,0,0-1.915-4.913,6.223,6.223,0,0,0-4.559-2.01h0a6.228,6.228,0,0,0-4.565,2.01l-1.457,1.546-1.457-1.546a6.27,6.27,0,0,0-4.555-1.936h-.005a6.291,6.291,0,0,0-4.568,1.936,7.265,7.265,0,0,0,0,9.828L50.608,66.91a.289.289,0,0,0,.43,0L61.408,55.9A7.118,7.118,0,0,0,63.324,50.99Zm-12.5,15.1L40.668,55.308a6.381,6.381,0,0,1,0-8.636A5.642,5.642,0,0,1,44.8,44.861h.005a5.633,5.633,0,0,1,4.128,1.812l1.672,1.774a.326.326,0,0,0,.43,0l1.672-1.774a5.687,5.687,0,0,1,4.132-1.762h0a5.692,5.692,0,0,1,4.135,1.762,6.362,6.362,0,0,1,0,8.636Z" transform="translate(-38.323 -44.066)" fill="#fff"/>
              </g>
            </g>
          </g>
        </g>
      </g>
    </g>
  </g>
  <g id="Icon-Video_heart-2" data-name="Icon-Video heart">
    <g id="Group_8196-2" data-name="Group 8196" transform="translate(0.001)">
      <g id="Group_8195-2" data-name="Group 8195">
        <g id="Group_8194-2" data-name="Group 8194">
          <g id="Group_8193-2" data-name="Group 8193">
            <g id="Group_8192-2" data-name="Group 8192">
              <g id="Group_8191-2" data-name="Group 8191">
                <g id="Group_8190-2" data-name="Group 8190">
                  <path id="Path_9486-2" data-name="Path 9486" d="M63.324,50.99a7.117,7.117,0,0,0-1.915-4.913,6.223,6.223,0,0,0-4.559-2.01h0a6.228,6.228,0,0,0-4.565,2.01l-1.457,1.546-1.457-1.546a6.27,6.27,0,0,0-4.555-1.936h-.005a6.291,6.291,0,0,0-4.568,1.936,7.265,7.265,0,0,0,0,9.828L50.608,66.91a.289.289,0,0,0,.43,0L61.408,55.9A7.118,7.118,0,0,0,63.324,50.99Zm-12.5,15.1L40.668,55.308a6.381,6.381,0,0,1,0-8.636A5.642,5.642,0,0,1,44.8,44.861h.005a5.633,5.633,0,0,1,4.128,1.812l1.672,1.774a.326.326,0,0,0,.43,0l1.672-1.774a5.687,5.687,0,0,1,4.132-1.762h0a5.692,5.692,0,0,1,4.135,1.762,6.362,6.362,0,0,1,0,8.636Z" transform="translate(-38.323 -44.066)" fill="#fff"/>
                </g>
              </g>
            </g>
          </g>
        </g>
      </g>
    </g>
    <path id="Path_9487" data-name="Path 9487" d="M271.378,50.993a7.116,7.116,0,0,1-1.916,4.914l-10.37,11.007a.29.29,0,0,1-.431,0l-10.37-11a7.267,7.267,0,0,1,0-9.83,6.294,6.294,0,0,1,4.57-1.936h.005a6.273,6.273,0,0,1,4.555,1.936l1.457,1.547,1.457-1.547A6.227,6.227,0,0,1,264.9,44.07h0a6.217,6.217,0,0,1,4.559,2.009A7.116,7.116,0,0,1,271.378,50.993Z" transform="translate(-246.376 -44.07)" fill="#fff"/>
  </g>
</svg>
