<?xml version="1.0" encoding="UTF-8"?>
<svg width="38px" height="38px" viewBox="0 0 38 38" version="1.1" xmlns="http://www.w3.org/2000/svg" xmlns:xlink="http://www.w3.org/1999/xlink">
    <!-- Generator: sketchtool 63.1 (101010) - https://sketch.com -->
    <title>CC34D1D4-A294-40AD-8F66-0CBA755DC810</title>
    <desc>Created with sketchtool.</desc>
    <g id="Homepage" stroke="none" stroke-width="1" fill="none" fill-rule="evenodd">
        <g id="BA-Homepage-Desktop-B-030220" transform="translate(-730.000000, -3719.000000)" fill="#FFFFFF" fill-rule="nonzero">
            <g id="footer" transform="translate(0.000000, 3593.000000)">
                <g id="connect" transform="translate(571.000000, 84.000000)">
                    <g id="Group-9" transform="translate(0.000000, 42.000000)">
                        <path d="M182.47925,9.97816667 C181.31075,9.92433333 180.95925,9.91483333 178,9.91483333 C175.04075,9.91483333 174.690833,9.92591667 173.522333,9.97816667 C170.515583,10.1159167 169.115917,11.5393333 168.978167,14.5223333 C168.925917,15.6908333 168.91325,16.04075 168.91325,19 C168.91325,21.95925 168.925917,22.3091667 168.978167,23.47925 C169.115917,26.4543333 170.50925,27.8856667 173.522333,28.0234167 C174.68925,28.0756667 175.04075,28.0883333 178,28.0883333 C180.960833,28.0883333 181.31075,28.07725 182.47925,28.0234167 C185.486,27.88725 186.884083,26.4590833 187.023417,23.47925 C187.075667,22.31075 187.08675,21.95925 187.08675,19 C187.08675,16.04075 187.075667,15.6908333 187.023417,14.5223333 C186.884083,11.5409167 185.482833,10.1159167 182.47925,9.97816667 Z M178,24.6920833 C174.857083,24.6920833 172.307917,22.1445 172.307917,19 C172.307917,15.8570833 174.857083,13.3095 178,13.3095 C181.142917,13.3095 183.692083,15.8570833 183.692083,19 C183.692083,22.1429167 181.142917,24.6920833 178,24.6920833 Z M183.916917,14.4146667 C183.18225,14.4146667 182.586917,13.8193333 182.586917,13.0846667 C182.586917,12.35 183.18225,11.7546667 183.916917,11.7546667 C184.651583,11.7546667 185.246917,12.35 185.246917,13.0846667 C185.246917,13.81775 184.651583,14.4146667 183.916917,14.4146667 L183.916917,14.4146667 Z M181.693917,19 C181.693917,21.0409167 180.039333,22.6939167 178,22.6939167 C175.960667,22.6939167 174.306083,21.0409167 174.306083,19 C174.306083,16.9590833 175.960667,15.3060833 178,15.3060833 C180.039333,15.3060833 181.693917,16.9590833 181.693917,19 Z M178,0 C167.50725,0 159,8.50725 159,19 C159,29.49275 167.50725,38 178,38 C188.49275,38 197,29.49275 197,19 C197,8.50725 188.49275,0 178,0 Z M189.016833,23.5695 C188.83475,27.5990833 186.591167,29.8315833 182.571083,30.0168333 C181.388333,30.0706667 181.009917,30.0833333 178,30.0833333 C174.990083,30.0833333 174.61325,30.0706667 173.4305,30.0168333 C169.4025,29.8315833 167.168417,27.5959167 166.983167,23.5695 C166.929333,22.3883333 166.916667,22.0099167 166.916667,19 C166.916667,15.9900833 166.929333,15.61325 166.983167,14.4305 C167.168417,10.4025 169.404083,8.16841667 173.4305,7.98475 C174.61325,7.92933333 174.990083,7.91666667 178,7.91666667 C181.009917,7.91666667 181.388333,7.92933333 182.571083,7.98475 C186.600667,8.17 188.836333,10.4104167 189.016833,14.4305 C189.070667,15.61325 189.083333,15.9900833 189.083333,19 C189.083333,22.0099167 189.070667,22.3883333 189.016833,23.5695 Z" id="instagram"></path>
                    </g>
                </g>
            </g>
        </g>
    </g>
</svg>