<?xml version="1.0" encoding="utf-8"?>
<svg width="564px" height="516px" viewBox="0 0 564 516" version="1.1" xmlns:xlink="http://www.w3.org/1999/xlink" xmlns="http://www.w3.org/2000/svg">
  <desc>Created with Lunacy</desc>
  <defs>
    <path d="M136.623 322.184C82.8392 318.036 34.7458 293.58 2.98046e-05 256.471L27.174 230.709L31.8983 220.866L60.2449 208.661L69.2999 191.732L79.5361 140.551L96.4653 111.417L100.402 67.3229L127.961 43.3071L124.418 12.9921L135.442 11.0236L139.772 0L163.001 42.5197L169.3 44.0945L183.473 72.441L161.82 106.299L155.914 157.874L152.765 194.094L143.316 223.622L148.434 275.591L136.623 292.913L136.623 322.184Z" transform="matrix(0.9998477 0.01745241 -0.01745241 0.9998477 16.28331 -1.525879E-05)" id="path_1" />
    <path d="M245.638 175.241C228.241 251.391 169.351 311.736 94.0193 331.223L46.1102 333L0 210.945L50.7875 45.1968L49.1102 0L57.1102 0L73.2284 9.76376L81.4961 24.3307L127.559 62.9134L135.827 114.882L152.11 129L167.717 149.921L178.346 160.157L242.52 173.15L245.638 175.241Z" transform="translate(109.8181 0.7606813)" id="path_2" />
    <path d="M255.857 182.093C237.946 252.651 184.228 308.926 115.181 330.438L46.1102 333L0 210.945L50.7875 45.1968L49.1102 0L57.1102 0L73.2284 9.76376L81.4961 24.3307L127.559 62.9134L135.827 114.882L152.11 129L167.717 149.921L178.346 160.157L242.52 173.15L255.857 182.093Z" transform="translate(106.8209 0.7607118)" id="path_3" />
    <path d="M41.7166 0L51.9685 17.6849L79.5276 70.8345L69.7166 94L70.4724 120.834L62.9922 110.992L32.7166 94L0 79.1022L16.9292 2.33057L41.7166 0Z" transform="translate(156.4081 69.7607)" id="path_4" />
    <path d="M22.4518 286.929C14.0832 277.443 6.55996 267.194 -8.28537e-06 256.299L0.324948 255.906L13.3171 259.449L43.6321 230.709L48.3564 220.866L76.703 208.661L85.7581 191.732L95.9943 140.551L112.924 111.417L116.86 67.3229L144.419 43.3071L140.876 12.9921L151.9 11.0236L156.23 0L179.459 42.5197L185.758 44.0945L199.931 72.441L178.278 106.299L172.372 157.874L169.223 194.095L159.774 223.622L164.892 275.591L153.081 292.913L153.081 332.41L22.4518 286.929Z" transform="translate(0 0.7606812)" id="path_5" />
    <path d="M0 209.5C0 93.7963 93.7963 0 209.5 0C325.204 0 419 93.7963 419 209.5C419 325.204 325.204 419 209.5 419C93.7963 419 0 325.204 0 209.5Z" transform="translate(73.60681 3.999977)" id="path_6" />
    <path d="M56.8047 47.3373L40.2367 69.8225L43.1952 84.0237L2.9585 160.355L2.9585 160.355L0 181.657L14.7928 196.45L24.852 198.817L24.852 198.817L39.0532 200.592L53.2544 200.592L53.2544 200.592L67.4556 218.935L67.4556 230.769L77.208 236.318L85.7988 209.467L77.208 185.318L115.976 160.947L141.622 172.379L158.252 177.347L178.475 187.147L231.953 113.609L170.414 43.1953L175.74 24.2604L168.639 0L137.87 20.1184L117.751 15.9764L56.8047 47.3373Z" transform="matrix(0.9961944 -0.0871557 0.0871557 0.9961944 -0.0001220703 203.62)" id="path_7" />
    <clipPath id="clip_1">
      <use xlink:href="#path_1" />
    </clipPath>
    <clipPath id="clip_2">
      <use xlink:href="#path_2" />
    </clipPath>
    <clipPath id="clip_3">
      <use xlink:href="#path_3" />
    </clipPath>
    <clipPath id="clip_4">
      <use xlink:href="#path_4" />
    </clipPath>
    <clipPath id="clip_5">
      <use xlink:href="#path_5" />
    </clipPath>
    <clipPath id="clip_6">
      <use xlink:href="#path_6" />
    </clipPath>
    <clipPath id="clip_7">
      <use xlink:href="#path_7" />
    </clipPath>
  </defs>
  <g id="Group-5" transform="translate(1.659973 1.660004)">
    <g id="Group-4" transform="translate(148.2847 104.3522)">
      <g id="New-shape-Intersect-Copy">
        <use stroke="none" fill="#000000" xlink:href="#path_1" fill-rule="evenodd" />
        <g clip-path="url(#clip_1)">
          <use xlink:href="#path_1" fill="none" stroke="#000000" stroke-width="2" />
        </g>
      </g>
      <g id="New-shape-2-Intersect">
        <use stroke="none" fill="#FFFFFF" xlink:href="#path_2" fill-rule="evenodd" />
        <g clip-path="url(#clip_2)">
          <use xlink:href="#path_2" fill="none" stroke="#FFFFFF" stroke-width="10" />
        </g>
      </g>
      <g id="New-shape-2-Intersect-Copy">
        <use stroke="none" fill="#B8B8B8" xlink:href="#path_3" fill-rule="evenodd" />
        <g clip-path="url(#clip_3)">
          <use xlink:href="#path_3" fill="none" stroke="#B8B8B8" stroke-width="10" />
        </g>
      </g>
      <path d="M149.22 155.662C147.845 156.979 146.453 158.278 145.043 159.558L88 119L55.9213 52.9605L22.8505 26.5825L0 0L18.5197 16.3463L75.2127 50.992L79 61L88 92L149.22 155.662Z" transform="translate(148.9312 132.7607)" id="New-shape-4-Intersect" fill="#FFFFFF" fill-rule="evenodd" stroke="#FFFFFF" stroke-width="1" />
      <g id="New-shape-3">
        <use stroke="none" fill="#3C3C3C" xlink:href="#path_4" />
        <g clip-path="url(#clip_4)">
          <use xlink:href="#path_4" fill="none" stroke="#3C3C3C" stroke-width="10" />
        </g>
      </g>
      <g id="New-shape-Intersect">
        <use stroke="none" fill="#686868" xlink:href="#path_5" fill-rule="evenodd" />
        <g clip-path="url(#clip_5)">
          <use xlink:href="#path_5" fill="none" stroke="#686868" stroke-width="2" />
        </g>
      </g>
    </g>
    <g id="Group-5" transform="matrix(0.9945219 0.1045285 -0.1045285 0.9945219 48.21021 0)">
      <path d="M209.5 -7.38231e-06C93.7963 -7.51877e-06 0 93.7963 0 209.5C0 325.204 93.7963 419 209.5 419C325.204 419 419 325.204 419 209.5C419 93.7963 325.204 -7.24585e-06 209.5 -7.38231e-06ZM196.801 57.2429C107.041 79.6225 53.3935 174.439 76.9756 269.022C100.558 363.605 192.439 422.137 282.199 399.757C371.959 377.378 425.607 282.561 402.025 187.978C378.443 93.3954 286.561 34.8632 196.801 57.2429Z" transform="translate(73.6062 7.629395E-06)" id="Ellipse-Difference" fill="#000000" fill-rule="evenodd" stroke="none" />
      <g id="Ellipse-Copy-2">
        <g clip-path="url(#clip_6)">
          <use xlink:href="#path_6" fill="none" stroke="#000000" stroke-width="10" />
        </g>
      </g>
      <g id="New-shape">
        <use stroke="none" fill="#000000" xlink:href="#path_7" />
        <g clip-path="url(#clip_7)">
          <use xlink:href="#path_7" fill="none" stroke="#000000" stroke-width="2" />
        </g>
      </g>
      <path d="M40.2867 5.77933L207.362 85.8144L181.793 101.576L142.674 114.039L79.3409 118.214L30.6543 109.107C30.6543 109.107 0.721234 82.6619 0.0206724 82.6619C-0.679889 82.6619 16.6581 13.1348 16.6581 13.1348L28.567 0L40.2867 5.77933Z" transform="translate(200.9326 290.9608)" id="New-shape-2" fill="#000000" stroke="#000000" stroke-width="1" />
    </g>
  </g>
</svg>