<svg xmlns="http://www.w3.org/2000/svg" width="19.048" height="16.264" viewBox="0 0 19.048 16.264"><path d="M23.514,22.453l-1.941-7.824a3.662,3.662,0,0,0-3.151-2.88,3.792,3.792,0,0,0-1.263.036.515.515,0,0,0,.232,1,2.8,2.8,0,0,1,.915-.016,2.638,2.638,0,0,1,2.265,2.09L21.946,20.4a4.082,4.082,0,0,0-6.694,1.765,4.822,4.822,0,0,0-1.974,0A4.082,4.082,0,0,0,6.584,20.4l1.378-5.558a2.633,2.633,0,0,1,2.262-2.075,2.8,2.8,0,0,1,.915.016.515.515,0,0,0,.232-1,3.793,3.793,0,0,0-1.263-.036A3.656,3.656,0,0,0,6.96,14.614L5.016,22.453a.514.514,0,0,0,.286.591c-.009.113-.017.227-.017.342a4.089,4.089,0,0,0,8.179,0c0-.068-.007-.135-.01-.2a3.782,3.782,0,0,1,1.625,0c0,.068-.01.134-.01.2a4.089,4.089,0,0,0,8.179,0c0-.115-.008-.229-.017-.342A.514.514,0,0,0,23.514,22.453ZM9.373,26.447a3.06,3.06,0,1,1,3.06-3.06h0A3.063,3.063,0,0,1,9.373,26.447Zm9.783,0a3.06,3.06,0,1,1,3.06-3.06A3.06,3.06,0,0,1,19.156,26.447Z" transform="translate(-4.741 -11.462)" fill="#EE3A29" stroke="#EE3A29" stroke-width="0.5"/></svg>