<?xml version="1.0" encoding="UTF-8"?>
<svg width="38px" height="38px" viewBox="0 0 38 38" version="1.1" xmlns="http://www.w3.org/2000/svg" xmlns:xlink="http://www.w3.org/1999/xlink">
    <!-- Generator: sketchtool 63.1 (101010) - https://sketch.com -->
    <title>8A1C9215-53B5-43BC-BD29-4B33C1554BA8</title>
    <desc>Created with sketchtool.</desc>
    <g id="Homepage" stroke="none" stroke-width="1" fill="none" fill-rule="evenodd">
        <g id="BA-Homepage-Desktop-B-030220" transform="translate(-677.000000, -3719.000000)" fill="#FFFFFF" fill-rule="nonzero">
            <g id="footer" transform="translate(0.000000, 3593.000000)">
                <g id="connect" transform="translate(571.000000, 84.000000)">
                    <g id="Group-9" transform="translate(0.000000, 42.000000)">
                        <path d="M125,0 C114.50725,0 106,8.50725 106,19 C106,29.49275 114.50725,38 125,38 C135.49275,38 144,29.49275 144,19 C144,8.50725 135.49275,0 125,0 Z M134.6045,15.27125 C134.89425,21.6679167 130.123667,28.79925 121.678167,28.79925 C119.11,28.79925 116.72075,28.0455833 114.708333,26.7551667 C117.121333,27.0401667 119.529583,26.3688333 121.440667,24.8725833 C119.452,24.8361667 117.772083,23.5204167 117.191,21.7138333 C117.905083,21.85 118.608083,21.8104167 119.246167,21.63625 C117.059583,21.1960833 115.549083,19.2264167 115.598167,17.119 C116.2125,17.4594167 116.912333,17.6636667 117.658083,17.6874167 C115.633,16.3336667 115.059833,13.6594167 116.2505,11.6153333 C118.4925,14.3671667 121.844417,16.1769167 125.623833,16.3669167 C124.960417,13.52325 127.1185,10.7825 130.055583,10.7825 C131.361833,10.7825 132.544583,11.3350833 133.37425,12.2185833 C134.40975,12.0159167 135.385083,11.6359167 136.26225,11.115 C135.921833,12.1774167 135.201417,13.06725 134.2625,13.6309167 C135.182417,13.5200833 136.059583,13.27625 136.873417,12.9136667 C136.265417,13.8288333 135.495917,14.63 134.6045,15.27125 L134.6045,15.27125 Z" id="twitter"></path>
                    </g>
                </g>
            </g>
        </g>
    </g>
</svg>