<?xml version="1.0" encoding="UTF-8"?>
<svg width="38px" height="38px" viewBox="0 0 38 38" version="1.1" xmlns="http://www.w3.org/2000/svg" xmlns:xlink="http://www.w3.org/1999/xlink">
    <!-- Generator: sketchtool 63.1 (101010) - https://sketch.com -->
    <title>85CC527E-BFF2-4B6C-A496-C6B7EF318974</title>
    <desc>Created with sketchtool.</desc>
    <g id="Homepage" stroke="none" stroke-width="1" fill="none" fill-rule="evenodd">
        <g id="BA-Homepage-Desktop-B-030220" transform="translate(-571.000000, -3719.000000)" fill="#FFFFFF" fill-rule="nonzero">
            <g id="footer" transform="translate(0.000000, 3593.000000)">
                <g id="connect" transform="translate(571.000000, 84.000000)">
                    <g id="Group-9" transform="translate(0.000000, 42.000000)">
                        <path d="M19,0 C8.50725,0 0,8.50725 0,19 C0,29.49275 8.50725,38 19,38 C29.49275,38 38,29.49275 38,19 C38,8.50725 29.49275,0 19,0 Z M26.0315833,26.7456667 C22.7034167,26.9736667 15.29025,26.9736667 11.9668333,26.7456667 C8.36316667,26.4986667 7.94358333,24.7348333 7.91666667,19 C7.94358333,13.2540833 8.36791667,11.5013333 11.9668333,11.2543333 C15.29025,11.0263333 22.705,11.0263333 26.0315833,11.2543333 C29.6368333,11.5013333 30.0548333,13.2651667 30.0833333,19 C30.0548333,24.7459167 29.6320833,26.4986667 26.0315833,26.7456667 Z M15.8333333,15.2918333 L23.6185833,18.9936667 L15.8333333,22.7081667 L15.8333333,15.2918333 L15.8333333,15.2918333 Z" id="youtube"></path>
                    </g>
                </g>
            </g>
        </g>
    </g>
</svg>